<svg width="16" height="16" viewBox="0 0 16 16" fill="none" xmlns="http://www.w3.org/2000/svg">
<path fill-rule="evenodd" clip-rule="evenodd" d="M7.05719 1.58925C7.345 1.42147 7.66971 1.33333 7.99999 1.33333C8.33027 1.33333 8.65498 1.42147 8.94279 1.58925C9.23059 1.75702 9.47178 1.99876 9.64307 2.29115L9.64491 2.2943L15.0706 11.6728L15.0758 11.6819C15.2436 11.9828 15.3324 12.3239 15.3333 12.6714C15.3343 13.0188 15.2473 13.3604 15.0811 13.6623C14.915 13.9641 14.6754 14.2157 14.3862 14.3919C14.097 14.568 13.7683 14.6628 13.4327 14.6666L13.4257 14.6667L2.56727 14.6666C2.23173 14.6628 1.90301 14.568 1.61381 14.3919C1.3246 14.2157 1.085 13.9641 0.918831 13.6623C0.752663 13.3604 0.665725 13.0188 0.666664 12.6714C0.667604 12.3239 0.756389 11.9828 0.924186 11.6819L0.92939 11.6728L6.3569 2.29115C6.5282 1.99876 6.76939 1.75702 7.05719 1.58925ZM7.99999 2.65985C7.8899 2.65985 7.78166 2.68923 7.68572 2.74515C7.59022 2.80082 7.51012 2.88093 7.45307 2.9778L2.03154 12.3491C1.97697 12.4484 1.94812 12.5607 1.94781 12.6751C1.9475 12.7909 1.97648 12.9048 2.03187 13.0054C2.08726 13.106 2.16713 13.1898 2.26353 13.2486C2.35908 13.3068 2.46758 13.3383 2.5784 13.3401H13.4216C13.5324 13.3383 13.6409 13.3068 13.7365 13.2486C13.8329 13.1898 13.9127 13.106 13.9681 13.0054C14.0235 12.9048 14.0525 12.7909 14.0522 12.6751C14.0519 12.5607 14.023 12.4485 13.9685 12.3491L8.54768 2.97912C8.54743 2.97868 8.54717 2.97824 8.54691 2.9778C8.48986 2.88093 8.40976 2.80082 8.31426 2.74515C8.21832 2.68923 8.11008 2.65985 7.99999 2.65985ZM7.99999 5.38102C8.35377 5.38102 8.64057 5.67797 8.64057 6.04428V8.69731C8.64057 9.06362 8.35377 9.36057 7.99999 9.36057C7.64621 9.36057 7.35941 9.06362 7.35941 8.69731V6.04428C7.35941 5.67797 7.64621 5.38102 7.99999 5.38102ZM7.35941 11.3503C7.35941 10.984 7.64621 10.6871 7.99999 10.6871H8.0064C8.36018 10.6871 8.64697 10.984 8.64697 11.3503C8.64697 11.7166 8.36018 12.0136 8.0064 12.0136H7.99999C7.64621 12.0136 7.35941 11.7166 7.35941 11.3503Z" fill="#C01630"/>
</svg>
